<svg xmlns="http://www.w3.org/2000/svg" viewBox="0 0 612 612"><path fill="#fff" d="M441.677 423.836l133.815-11.781-120.462-47.198 101.59-84.067-61.182 12.261-17.59-24.322 87.941-7.743-82.198-32.206 69.795-54.059-86.562 17.347 29.489-83.212-63.442 61.391-20.179-85.944-12.764 54.361-33.185 6.649-32.685-31.629 25.704-72.534-86.634 83.834-27.555-117.364-27.557 117.364-86.634-83.834 40.269 113.631-118.207-23.687 95.312 73.822-112.248 43.979 120.091 10.574-70.651 97.683 84.098-44.143 21.093 16.337-2.854 51.871-78.708 30.837 133.815 11.781-78.726 108.848 118.943-62.436-7.382 134.132 66.307-116.827 66.308 116.827-7.382-134.132 118.942 62.436-78.725-108.847zm-109.256-305.526l9.599 27.086-1.2 5.112-21.324 4.273 12.925-36.471z"/></svg>