<svg xmlns="http://www.w3.org/2000/svg" width="100%" height="100%" viewBox="0 0 612 792"><g fill="#fff"><path d="M223.5 311.488c0 2.492-2.02 4.512-4.512 4.512h-117.976c-2.492 0-4.512-2.02-4.512-4.512v-117.976c0-2.492 2.02-4.512 4.512-4.512h117.977c2.492 0 4.512 2.02 4.512 4.512v117.976z"/><path d="M223.5 454.988c0 2.492-2.02 4.512-4.512 4.512h-117.976c-2.492 0-4.512-2.02-4.512-4.512v-117.976c0-2.492 2.02-4.512 4.512-4.512h117.977c2.492 0 4.512 2.02 4.512 4.512v117.976z"/><path d="M223.5 598.488c0 2.492-2.02 4.512-4.512 4.512h-117.976c-2.492 0-4.512-2.02-4.512-4.512v-117.976c0-2.492 2.02-4.512 4.512-4.512h117.977c2.492 0 4.512 2.02 4.512 4.512v117.976z"/><path d="M515.5 311.488c0 2.492-2.02 4.512-4.512 4.512h-267.976c-2.492 0-4.512-2.02-4.512-4.512v-117.976c0-2.492 2.02-4.512 4.512-4.512h267.977c2.492 0 4.512 2.02 4.512 4.512v117.976z"/><path d="M515.5 454.988c0 2.492-2.02 4.512-4.512 4.512h-267.976c-2.492 0-4.512-2.02-4.512-4.512v-117.976c0-2.492 2.02-4.512 4.512-4.512h267.977c2.492 0 4.512 2.02 4.512 4.512v117.976z"/><path d="M515.5 598.488c0 2.492-2.02 4.512-4.512 4.512h-267.976c-2.492 0-4.512-2.02-4.512-4.512v-117.976c0-2.492 2.02-4.512 4.512-4.512h267.977c2.492 0 4.512 2.02 4.512 4.512v117.976z"/></g></svg>