<svg xmlns="http://www.w3.org/2000/svg" viewBox="0 0 612 792"><path fill="#fff" d="M368.699 241.015l-62.699 62.699-62.698-62.698c-3.348-3.349-7.077-5.051-8.326-3.801l-87.761 87.76c-1.25 1.25.452 4.977 3.801 8.326l62.698 62.699-62.698 62.699c-3.349 3.348-5.051 7.076-3.801 8.326l87.76 87.759c1.25 1.251 4.978-.451 8.327-3.801l62.698-62.699 62.699 62.699c3.348 3.348 7.076 5.05 8.326 3.801l87.759-87.76c1.251-1.251-.452-4.979-3.8-8.326l-62.7-62.698 62.699-62.699c3.348-3.348 5.05-7.076 3.8-8.326l-87.759-87.76c-1.249-1.25-4.977.452-8.325 3.8z"/></svg>